# xmcd CD database file
#
# Track frame offsets:
#	150
#	23100
#	45385
#	66957
#	86671
#	109159
#	115222
#	135214
#	154892
#	177338
#	197482
#	220513
#
# Disc length: 3188 seconds
#
# Revision: 2
# Processed by: cddbd v1.5.2PL0 Copyright (c) Steve Scherf et al.
# Submitted via: CDex 1.70beta3
#
DISCID=990c720c
DTITLE=Various Artist - The Best of Jazzin’ for Ghibli
DYEAR=2008
DGENRE=Jazz
TTITLE0=マルコとジーナ
TTITLE1=風の伝説
TTITLE2=風の通り道
TTITLE3=海の見える街
TTITLE4=人生のメリーゴーランド
TTITLE5=Ghibli Interlude
TTITLE6=いのちの名前 ～ジブリ・メドレー～
TTITLE7=アシタカとサン
TTITLE8=もののけ姫
TTITLE9=君をのせて (sal's reconstruction)
TTITLE10=あの夏へ
TTITLE11=テルーの唄
EXTD=YEAR: 2008
EXTT0=
EXTT1=
EXTT2=
EXTT3=
EXTT4=
EXTT5=
EXTT6=
EXTT7=
EXTT8=
EXTT9=
EXTT10=
EXTT11=
PLAYORDER=
